<?xml version="1.0" encoding="utf-8"?>
<!-- Generator: Adobe Illustrator 24.1.3, SVG Export Plug-In . SVG Version: 6.00 Build 0)  -->
<svg version="1.1" id="Layer_1" xmlns="http://www.w3.org/2000/svg" xmlns:xlink="http://www.w3.org/1999/xlink" x="0px" y="0px"
	 viewBox="0 0 121.999008 47.278107" style="enable-background:new 0 0 121.999008 47.278107;" xml:space="preserve">
<style type="text/css">
	.st0{clip-path:url(#SVGID_2_);fill:#022c5b;}
</style>
<g>
	<defs>
		<rect id="SVGID_1_" y="0.000107" width="121.999001" height="47.278"/>
	</defs>
	<clipPath id="SVGID_2_">
		<use xlink:href="#SVGID_1_"  style="overflow:visible;"/>
	</clipPath>
	<path class="st0" d="M115.328194,44.568607c-1.012001-20.583-17.300003-36.802998-37.889999-37.726997l-1.771004-0.080002
		v-6.762001h1.854004c5.869003,0,11.595001,1.140003,17.020996,3.387001c5.425003,2.248001,10.280006,5.491001,14.43,9.641003
		c4.149002,4.148998,7.392006,9.003998,9.639999,14.429996c2.247002,5.424999,3.387001,11.152,3.387001,17.02v1.854h-6.584999
		L115.328194,44.568607z M106.294197,15.759607c2.209,2.200001,4.156998,4.608,5.822998,7.179001
		c-1.631004-2.632-3.563004-5.084-5.768005-7.289c-2.967995-2.967999-6.381996-5.439999-10.080994-7.350998
		C99.917191,10.269608,103.295197,12.773609,106.294197,15.759607"/>
	<path class="st0" d="M2.3801,35.247906c-0.774-0.415997-1.364-1.022999-1.771-1.818996
		c-0.406-0.797001-0.609-1.759003-0.609-2.887001v-3.924002c0-1.126999,0.203-2.09,0.609-2.886
		c0.407-0.796999,0.997-1.404999,1.771-1.824999c0.773-0.419001,1.704-0.629002,2.793-0.629002c0.898,0,1.701,0.194,2.41,0.58
		c0.708,0.388,1.293,0.949001,1.755,1.687c0.462,0.737001,0.782,1.627001,0.959,2.67H7.5041
		c-0.105-0.472-0.268-0.875-0.487-1.209999c-0.22-0.334-0.485-0.59-0.797-0.767c-0.311-0.177-0.66-0.264999-1.047-0.264999
		c-0.505,0-0.935,0.102999-1.289,0.309c-0.354,0.206999-0.624,0.508999-0.811,0.904999c-0.187,0.397001-0.28,0.874001-0.28,1.431
		v3.924002c0,0.557999,0.093,1.032999,0.28,1.425999c0.187,0.394001,0.457,0.694,0.811,0.899998
		c0.354,0.207001,0.784,0.310001,1.289,0.310001c0.394,0,0.748-0.086998,1.062-0.260998c0.315-0.173,0.581-0.427002,0.797-0.762001
		c0.216-0.334,0.373-0.74,0.472-1.219h2.792999c-0.184,1.042-0.507,1.931997-0.969,2.67
		c-0.462,0.737-1.046,1.299999-1.750999,1.686001c-0.704,0.388-1.506,0.580997-2.404,0.580997
		C4.0841,35.872906,3.1531,35.664909,2.3801,35.247906"/>
	<path class="st0" d="M12.559,21.425106h2.695v14.299999h-2.695V21.425106z M13.808,27.336107H22.138v2.597H13.808V27.336107z
		 M20.386999,21.425106h2.695v14.299999h-2.695V21.425106z"/>
	<path class="st0" d="M26.229,21.425106h2.695v14.299999h-2.695V21.425106z M27.202999,21.425106h8.605v2.597h-8.605V21.425106z
		 M27.202999,27.326107h7.522999v2.597h-7.522999V27.326107z M27.202999,33.129105h8.605v2.596001h-8.605V33.129105z"/>
	<path class="st0" d="M40.351799,35.247906c-0.774002-0.415997-1.364002-1.022999-1.771004-1.818996
		c-0.405998-0.797001-0.608997-1.759003-0.608997-2.887001v-3.924002c0-1.126999,0.202999-2.09,0.608997-2.886
		c0.407001-0.796999,0.997002-1.404999,1.771004-1.824999c0.772999-0.419001,1.704998-0.629002,2.792999-0.629002
		c0.897999,0,1.702,0.194,2.41,0.58c0.708,0.388,1.292999,0.949001,1.755001,1.687c0.461998,0.737001,0.781998,1.627001,0.959,2.67
		h-2.793003c-0.105-0.472-0.267998-0.875-0.487-1.209999c-0.219997-0.334-0.485001-0.59-0.797001-0.767
		c-0.310997-0.177-0.66-0.264999-1.046997-0.264999c-0.505001,0-0.934002,0.102999-1.288002,0.309
		c-0.355,0.206999-0.625,0.508999-0.812,0.904999c-0.187,0.397001-0.279999,0.874001-0.279999,1.431v3.924002
		c0,0.557999,0.092999,1.032999,0.279999,1.425999c0.187,0.394001,0.457001,0.694,0.812,0.899998
		c0.354,0.207001,0.783001,0.310001,1.288002,0.310001c0.393997,0,0.747997-0.086998,1.062-0.260998
		c0.314999-0.173,0.580997-0.427002,0.796997-0.762001c0.216003-0.334,0.373001-0.74,0.472-1.219h2.793003
		c-0.184002,1.042-0.506001,1.931997-0.969002,2.67c-0.461998,0.737-1.046001,1.299999-1.75,1.686001
		c-0.704998,0.388-1.507,0.580997-2.404999,0.580997C42.056797,35.872906,41.124798,35.664909,40.351799,35.247906"/>
	<path class="st0" d="M50.530499,21.424707h2.695v14.300001h-2.695V21.424707z M52.1535,30.138706l5.734001-8.713999h3.392998
		l-8.783001,12.214998L52.1535,30.138706z M54.533501,28.486706l2.320999-1.464998l5.026001,8.702997h-3.197002L54.533501,28.486706
		z"/>
	<path class="st0" d="M65.056396,35.247906c-0.780006-0.415997-1.374001-1.022999-1.780003-1.818996
		c-0.406998-0.797001-0.610001-1.756002-0.610001-2.877003v-9.126999h2.694996v9.195999c0,0.82,0.219002,1.456001,0.659004,1.908001
		c0.439003,0.452,1.058998,0.678001,1.859001,0.678001c0.806,0,1.43-0.226002,1.873001-0.678001
		s0.663994-1.088001,0.663994-1.908001v-9.195999h2.695007v9.126999c0,1.121-0.205002,2.080002-0.615005,2.877003
		c-0.409996,0.795998-1.005997,1.403-1.790001,1.818996c-0.782997,0.417004-1.725998,0.625-2.826996,0.625
		C66.77739,35.872906,65.836395,35.664909,65.056396,35.247906"/>
	<path class="st0" d="M75.864998,21.424908h2.695v14.299999h-2.695V21.424908z M77.094002,27.581907H81.667
		c0.321999,0,0.604996-0.073999,0.850998-0.220999c0.246002-0.148001,0.438004-0.356001,0.576004-0.625
		c0.136993-0.268,0.205994-0.576,0.205994-0.925001c0-0.354-0.066994-0.665998-0.201996-0.938
		c-0.134003-0.271999-0.324005-0.482-0.57-0.629999c-0.246002-0.147001-0.533005-0.221001-0.861-0.221001h-4.572998v-2.597H81.598
		c0.891998,0,1.677002,0.182001,2.355995,0.546c0.679001,0.364,1.204002,0.878,1.578003,1.539001
		c0.374001,0.663,0.560997,1.43,0.560997,2.300999c0,0.873001-0.186996,1.638-0.560997,2.297001
		s-0.899002,1.169001-1.578003,1.528999c-0.678993,0.361-1.463997,0.541-2.355995,0.541h-4.503998V27.581907z"/>
	<path class="st0" d="M90.7005,35.665909c-0.652-0.138-1.266006-0.339001-1.839005-0.604
		c-0.573997-0.266003-1.086998-0.586002-1.539001-0.959003l1.249001-2.222998
		c0.550003,0.452002,1.187004,0.801001,1.908005,1.046999s1.461998,0.368999,2.222,0.368999
		c0.878998,0,1.560997-0.148998,2.045998-0.446999c0.485001-0.299,0.727997-0.720001,0.727997-1.264v-0.01
		c0-0.379999-0.107994-0.681999-0.324997-0.904999c-0.216003-0.222-0.498001-0.386002-0.846001-0.492001
		c-0.347-0.104-0.792999-0.198999-1.336998-0.285c-0.019005-0.006001-0.038002-0.01-0.054001-0.01
		c-0.016998,0-0.034004-0.003-0.054001-0.009001l-0.217003-0.029999c-0.957001-0.151001-1.75-0.339001-2.378998-0.566
		c-0.629997-0.226-1.165001-0.622002-1.603996-1.190001c-0.439003-0.566-0.659004-1.372-0.659004-2.414v-0.01
		c0-0.924,0.207001-1.714001,0.620003-2.370001c0.412994-0.655001,1.013-1.155001,1.799995-1.5
		c0.786003-0.344,1.737-0.515999,2.852005-0.515999c0.510994,0,1.033997,0.058998,1.569,0.176998
		c0.533997,0.118,1.056999,0.289001,1.568001,0.511002c0.511993,0.223,0.996994,0.491999,1.455994,0.806999l-1.140999,2.282
		c-0.550995-0.379999-1.125999-0.675999-1.725998-0.886c-0.599998-0.209-1.175003-0.315001-1.725998-0.315001
		c-0.826004,0-1.466003,0.137001-1.917999,0.409c-0.452003,0.272001-0.678001,0.654001-0.678001,1.146v0.009001
		c0,0.414,0.117996,0.74,0.353996,0.979c0.235001,0.24,0.527,0.414999,0.875,0.525999
		c0.347,0.112001,0.835999,0.230001,1.465004,0.354c0.026001,0.007,0.053001,0.012001,0.078995,0.015001
		c0.026001,0.002998,0.052002,0.007999,0.079002,0.014999c0.039001,0.006001,0.076004,0.014,0.112999,0.024
		c0.036003,0.01,0.074005,0.018999,0.112999,0.025c0.903999,0.177,1.660004,0.392,2.267006,0.644001
		c0.605995,0.251999,1.112999,0.658998,1.518997,1.219c0.406998,0.560999,0.610001,1.327,0.610001,2.296999v0.02
		c0,0.910999-0.212997,1.690998-0.639,2.34c-0.427002,0.648998-1.048004,1.143997-1.863998,1.485001
		c-0.816002,0.341-1.798004,0.512001-2.945999,0.512001C92.019493,35.87291,91.352493,35.803909,90.7005,35.665909"/>
	<path class="st0" d="M20.8503,41.776905h0.741001v5.423H20.8503V41.776905z M24.1943,43.913906c0-0.48-0.112-0.854-0.337-1.118
		c-0.223999-0.264999-0.545-0.397999-0.959999-0.397999c-0.415001,0-0.736,0.119999-0.964001,0.359001
		c-0.228001,0.237999-0.341999,0.574997-0.341999,1.010998L21.4823,42.722908c0.179001-0.363003,0.412001-0.623001,0.701-0.785
		c0.288-0.16,0.624001-0.240002,1.007999-0.240002c0.368,0,0.682001,0.087002,0.945,0.258999
		c0.261002,0.173,0.461,0.424,0.596001,0.755001c0.136,0.331001,0.203001,0.73,0.203001,1.195999v3.292H24.1943V43.913906z
		 M27.539301,43.913906c0-0.48-0.113001-0.854-0.339001-1.118c-0.226-0.264999-0.546-0.397999-0.958-0.397999
		c-0.415001,0-0.736,0.129002-0.965,0.387001c-0.226999,0.257999-0.341999,0.619999-0.341999,1.086998l-0.313002-0.784
		c0.171001-0.448997,0.409-0.792999,0.715-1.030998c0.306-0.239002,0.673-0.359001,1.101-0.359001
		c0.388,0,0.719,0.087002,0.996,0.258999c0.276001,0.173,0.486,0.424,0.630001,0.755001
		c0.143999,0.331001,0.216,0.73,0.216,1.195999v3.292h-0.740999V43.913906z"/>
	<path class="st0" d="M30.9016,46.994007c-0.35-0.189999-0.616001-0.466999-0.800001-0.831001
		c-0.183001-0.363998-0.275-0.801998-0.275-1.314999v-0.610001c0-0.536999,0.087999-0.994999,0.264-1.375
		c0.177-0.378998,0.434-0.667999,0.77-0.867001c0.335999-0.197998,0.740999-0.298,1.215-0.298
		c0.445,0,0.826,0.098,1.141998,0.293003c0.316002,0.195,0.556,0.48,0.723,0.855
		c0.166,0.374001,0.249001,0.823997,0.249001,1.349998v0.620998h-3.858999v-0.677998h3.17v-0.053001
		c0-0.535999-0.124001-0.951-0.373001-1.245998c-0.248001-0.294003-0.599998-0.442001-1.051998-0.442001
		c-0.498001,0-0.882,0.156002-1.153,0.465c-0.271,0.311001-0.407001,0.749001-0.407001,1.318001v0.688999
		c0,0.542999,0.145,0.964001,0.433001,1.262001s0.694,0.445999,1.219999,0.445999c0.247002,0,0.491001-0.051998,0.731998-0.155998
		c0.242001-0.105003,0.458-0.253002,0.647003-0.445004l0.502998,0.492001c-0.259998,0.257-0.555,0.457001-0.883999,0.598
		c-0.329002,0.141003-0.662003,0.211002-0.998001,0.211002C31.673599,47.278008,31.2526,47.183006,30.9016,46.994007"/>
	<path class="st0" d="M36.431,47.019108c-0.277-0.172001-0.487999-0.422001-0.632999-0.749001
		c-0.143002-0.327999-0.216-0.721001-0.216-1.18v-1.181999c0-0.466,0.070999-0.865002,0.210999-1.196003
		c0.140999-0.330997,0.346001-0.581997,0.615002-0.754997c0.268997-0.172001,0.592999-0.259003,0.969997-0.259003
		c0.408001,0,0.766003,0.078003,1.073002,0.232002c0.306999,0.155998,0.553001,0.41,0.738998,0.761002l-0.108997,1.044998
		c0-0.237-0.053001-0.462002-0.162003-0.674c-0.106998-0.213001-0.264-0.384998-0.469997-0.517002
		c-0.207001-0.131996-0.448002-0.198997-0.726002-0.198997c-0.445999,0-0.791,0.137001-1.034,0.410999
		c-0.243999,0.272999-0.364998,0.659-0.364998,1.157001v1.175999c0,0.487,0.120998,0.866001,0.364998,1.134998
		c0.243,0.271,0.588001,0.406002,1.034,0.406002c0.274002,0,0.514999-0.069,0.721001-0.205002
		c0.206001-0.134998,0.362999-0.312,0.473-0.529999s0.164001-0.444,0.164001-0.681l0.072998,1.132999
		c-0.133999,0.331001-0.347,0.569-0.638,0.713001c-0.292,0.145-0.653999,0.216999-1.085999,0.216999
		C37.042,47.278107,36.709,47.192108,36.431,47.019108 M39.081001,39.603107h0.741001v7.597h-0.741001V39.603107z"/>
	<path class="st0" d="M41.676998,39.603107h0.741001v0.751999h-0.741001V39.603107z M41.676998,41.777107h0.741001v5.423h-0.741001
		V41.777107z"/>
	<path class="st0" d="M45.143799,47.017406c-0.344002-0.174999-0.600002-0.436001-0.77-0.784
		c-0.169003-0.348-0.254002-0.785-0.254002-1.312v-0.891998c0-0.52,0.085999-0.951,0.256001-1.296001
		c0.172001-0.345001,0.429001-0.604,0.77-0.777c0.341999-0.170998,0.769001-0.257999,1.284-0.257999
		c0.292,0,0.557999,0.032001,0.798,0.096001c0.239998,0.064999,0.453999,0.160999,0.642998,0.287998
		c0.188999,0.127003,0.353001,0.289001,0.493999,0.483002l-0.550999,0.497002c-0.181999-0.223-0.387001-0.389999-0.613998-0.499001
		c-0.229-0.110001-0.480003-0.165001-0.754002-0.165001c-0.532001,0-0.929001,0.136002-1.192001,0.404999
		c-0.261997,0.27-0.392998,0.679001-0.392998,1.226002v0.891998c0,0.554001,0.132,0.969002,0.396,1.243999
		c0.264,0.275002,0.66,0.413002,1.188999,0.413002c0.291,0,0.556-0.052002,0.794998-0.157001
		c0.238003-0.104,0.453003-0.261997,0.645-0.474998l0.479,0.48c-0.140999,0.192001-0.305,0.351002-0.493999,0.476002
		s-0.403,0.218998-0.642998,0.281998c-0.240002,0.062-0.506001,0.094002-0.798,0.094002
		C45.914799,47.278408,45.486797,47.191406,45.143799,47.017406"/>
	<path class="st0" d="M49.885696,46.839508c-0.342999-0.293003-0.514-0.705002-0.514-1.238003
		c0-0.511997,0.156002-0.907997,0.470001-1.188999c0.313999-0.279999,0.757-0.420998,1.330002-0.420998h1.775997l0.072002,0.700996
		h-1.843002c-0.341999,0-0.607998,0.079002-0.794998,0.237003c-0.186001,0.159-0.280003,0.382999-0.280003,0.671997
		c0,0.307003,0.117001,0.544003,0.353001,0.713001c0.234001,0.168999,0.566002,0.254002,0.995003,0.254002
		c0.459999,0,0.815998-0.048,1.070999-0.142002c0.252998-0.093998,0.380001-0.225998,0.380001-0.396l0.107998,0.709999
		c-0.105999,0.111-0.242001,0.208-0.409,0.290001c-0.166,0.082001-0.355999,0.143002-0.570999,0.185001
		c-0.214001,0.042-0.445,0.063-0.691002,0.063C50.712696,47.278507,50.228699,47.131508,49.885696,46.839508 M52.9007,43.762508
		c0-0.439003-0.115002-0.779003-0.347-1.021c-0.231003-0.243-0.560001-0.364002-0.985001-0.364002
		c-0.254002,0-0.503002,0.042-0.746002,0.125c-0.243999,0.084-0.459999,0.202-0.648998,0.355999l-0.541-0.375999
		c0.203999-0.246998,0.470001-0.439999,0.800999-0.577c0.331001-0.138,0.698002-0.207001,1.104-0.207001
		c0.442001,0,0.820999,0.080002,1.137001,0.238003c0.315998,0.157997,0.556,0.389,0.720001,0.688999
		c0.164997,0.301998,0.246998,0.663998,0.246998,1.089001v3.486H52.9007V43.762508z"/>
	<path class="st0" d="M56.083302,45.773308c0,0.23,0.056,0.409,0.167,0.535999s0.266998,0.190998,0.466,0.190998H57.2103v0.700001
		H56.5933c-0.399002,0-0.706001-0.125-0.924-0.375999c-0.218002-0.250999-0.327-0.605-0.327-1.061001v-6.16h0.741001V45.773308z"/>
	<path class="st0" d="M61.434601,39.602905h0.741001v7.597h-0.741001V39.602905z M64.985603,43.913906
		c0-0.48-0.124001-0.854-0.373001-1.118c-0.249001-0.264999-0.600006-0.397999-1.053001-0.397999
		c-0.438,0-0.778999,0.118999-1.021,0.353001c-0.241001,0.235001-0.362999,0.569-0.362999,1.000999L62.0676,42.706905
		c0.189003-0.355,0.439003-0.612,0.752003-0.771c0.312-0.157997,0.674-0.237999,1.084999-0.237999
		c0.579994,0,1.028,0.193001,1.346001,0.577999c0.316994,0.385002,0.475998,0.929001,0.475998,1.632v3.292h-0.740997V43.913906z"/>
	<path class="st0" d="M68.167999,45.074108c0,0.476997,0.122002,0.847,0.364998,1.108997
		c0.244003,0.264,0.588005,0.395,1.035004,0.395c0.442001,0,0.784996-0.119999,1.026001-0.360001
		c0.241997-0.240997,0.362999-0.580997,0.362999-1.018997l0.072998,1.133999c-0.130997,0.268002-0.346001,0.493-0.646996,0.674
		c-0.300003,0.181-0.670006,0.271-1.108002,0.271c-0.590004,0-1.046005-0.192001-1.367004-0.577
		c-0.320999-0.385002-0.480995-0.928001-0.480995-1.626999v-3.297001h0.740997V45.074108z M70.957001,41.777107h0.735001v5.423
		h-0.735001V41.777107z"/>
	<path class="st0" d="M73.393394,39.603409h0.741005v7.596996h-0.741005V39.603409z M74.701401,47.061405
		c-0.292007-0.144997-0.505005-0.382-0.639008-0.712997l0.073006-1.134003c0,0.238003,0.054001,0.464001,0.165001,0.682003
		c0.108994,0.217999,0.266998,0.393997,0.472,0.529999c0.205994,0.136002,0.446999,0.203999,0.721001,0.203999
		c0.445999,0,0.790993-0.133999,1.033997-0.404999c0.244003-0.269001,0.364998-0.647999,0.364998-1.136002v-1.174999
		c0-0.499001-0.120995-0.883999-0.364998-1.157997c-0.243004-0.273003-0.587997-0.410004-1.033997-0.410004
		c-0.274002,0-0.515007,0.067001-0.721001,0.201004c-0.205002,0.133999-0.363007,0.307999-0.472,0.519997
		c-0.111,0.213001-0.165001,0.435001-0.165001,0.669003l-0.109001-1.045002c0.185997-0.351997,0.431999-0.605999,0.737999-0.760998
		c0.307999-0.154003,0.666-0.232002,1.073997-0.232002c0.377007,0,0.701004,0.087002,0.969002,0.258999
		c0.270004,0.172001,0.474998,0.423,0.615997,0.754002c0.140007,0.331001,0.211006,0.730999,0.211006,1.196999v1.181
		c0,0.459003-0.073006,0.853001-0.216003,1.181004c-0.144997,0.327-0.355995,0.577-0.632996,0.748997
		c-0.278,0.173-0.611,0.259003-0.999001,0.259003C75.354401,47.278408,74.992393,47.206406,74.701401,47.061405"/>
</g>
</svg>
