<?xml version="1.0" encoding="utf-8"?>
<!-- Generator: Adobe Illustrator 24.1.3, SVG Export Plug-In . SVG Version: 6.00 Build 0)  -->
<svg version="1.1" id="Layer_1" xmlns="http://www.w3.org/2000/svg" xmlns:xlink="http://www.w3.org/1999/xlink" x="0px" y="0px"
	 viewBox="0 0 124.346008 54.903503" style="enable-background:new 0 0 124.346008 54.903503;" xml:space="preserve">
<style type="text/css">
	.st0{clip-path:url(#SVGID_2_);fill:#113356;}
	.st1{clip-path:url(#SVGID_2_);fill:#EB2027;}
	.st2{clip-path:url(#SVGID_2_);fill:#FFFFFF;}
	.st3{clip-path:url(#SVGID_2_);fill:#23356C;}
	.st4{fill:#113356;}
</style>
<g>
	<defs>
		<rect id="SVGID_1_" y="0.000504" width="124.346001" height="54.903"/>
	</defs>
	<clipPath id="SVGID_2_">
		<use xlink:href="#SVGID_1_"  style="overflow:visible;"/>
	</clipPath>
	<path class="st0" d="M22.641899,48.922104h0.900999c2.360001,0,4.273001-1.913002,4.273001-4.272999V21.786106
		c0-2.360001-1.913-4.273003-4.273001-4.273003h-0.826c-2.402,0-4.348,1.947002-4.348,4.348v22.788002
		C18.368898,47.009102,20.281898,48.922104,22.641899,48.922104"/>
	<path class="st0" d="M23.5436,48.946304h-0.902c-2.368999,0-4.297001-1.928001-4.297001-4.297001V21.861305
		c0-2.410999,1.961-4.371998,4.372002-4.371998h0.827c2.368999,0,4.296999,1.926998,4.296999,4.296997v22.862999
		C27.840599,47.018303,25.9126,48.946304,23.5436,48.946304 M22.7166,17.537304c-2.384001,0-4.324001,1.939003-4.324001,4.324001
		v22.787998c0,2.342999,1.907,4.248001,4.249001,4.248001h0.902c2.341999,0,4.249001-1.905003,4.249001-4.248001V21.786304
		c0-2.342999-1.907001-4.249001-4.249001-4.249001H22.7166z"/>
	<path class="st0" d="M7.388,32.766804v0.901001c0,2.361,1.913,4.272999,4.272999,4.272999h22.862999
		c2.360001,0,4.272999-1.911999,4.272999-4.272999v-0.826c0-2.402-1.946999-4.348-4.348-4.348H11.660999
		C9.301,28.493805,7.388,30.406805,7.388,32.766804"/>
	<path class="st1" d="M19.7883,32.829304v0.777c0,2.394001,1.941,4.335003,4.334999,4.335003H34.4613
		c2.393997,0,4.335999-1.941002,4.335999-4.335003v-0.718998c0-2.427002-1.966999-4.393002-4.394001-4.393002H24.123299
		C21.7293,28.494305,19.7883,30.434305,19.7883,32.829304"/>
	<path class="st2" d="M27.8162,28.493904h-4.366001c-2.022999,0-3.661999,1.941-3.661999,4.334999v0.777
		c0,2.394001,1.639,4.334999,3.661999,4.334999H27.8162V28.493904z"/>
	<rect x="22.433001" y="23.058504" class="st1" width="1.319" height="8.615"/>
	<rect x="9.909" y="32.558502" class="st1" width="11.639" height="1.319"/>
	<path class="st1" d="M3.2788,33.108204h-3.278999v-0.923c0-2.922998,0.568-5.773998,1.686999-8.475998
		c1.119-2.701,2.734-5.118999,4.8-7.184998c2.066-2.066002,4.484-3.682003,7.184999-4.800003
		c2.702001-1.118999,5.554-1.687,8.474999-1.687h0.924002v3.367001l-0.882,0.040001
		C11.9368,13.904205,3.8258,21.981205,3.3218,32.230206L3.2788,33.108204z M12.8128,14.169205
		c-1.842,0.952003-3.542001,2.183002-5.02,3.661003c-1.098,1.098-2.06,2.317997-2.873,3.628998
		c0.831-1.279999,1.8-2.479,2.9-3.575001C9.3128,16.398205,10.9958,15.151207,12.8128,14.169205"/>
	<path class="st0" d="M23.092501,54.903503c-5.792,0-11.238-2.256001-15.334-6.352001s-6.352001-9.542-6.352001-15.334
		c0-5.792999,2.256001-11.237999,6.352001-15.334s9.542-6.351997,15.334-6.351997s11.237997,2.256001,15.333998,6.351997
		s6.352001,9.541,6.352001,15.334c0,5.792-2.256001,11.238003-6.352001,15.334S28.884501,54.903503,23.092501,54.903503
		 M23.092501,13.466503c-10.891,0-19.750999,8.860001-19.750999,19.750999s8.86,19.750999,19.750999,19.750999
		s19.750998-8.859997,19.750998-19.750999S33.983498,13.466503,23.092501,13.466503"/>
	<path class="st0" d="M28.254999,5.313503h-10.5v-5.313h10.5V5.313503z M19.066999,4.000504h7.875v-2.688h-7.875V4.000504z"/>
	<path class="st0" d="M4.5203,11.608604l-2.483,2.437c-0.182,0.179001-0.185,0.472-0.006,0.654003l0.311,0.316998
		c0.179,0.181999,0.472,0.185001,0.654,0.006001l0.766-0.751999l1.842,1.877998c0.18,0.181999,0.473,0.185001,0.655,0.005001
		l0.317-0.311001c0.182-0.177998,0.185-0.471001,0.006-0.653l-1.843-1.877998l0.74-0.725002c0.182-0.18,0.185-0.473,0.006-0.654999
		l-0.311-0.317001C4.9953,11.432606,4.7023,11.429607,4.5203,11.608604"/>
	<path class="st0" d="M5.935,16.330704H5.93c-0.135-0.000999-0.262-0.055-0.356-0.152l-1.812-1.846001l-0.734,0.721001
		c-0.097,0.095001-0.226,0.143002-0.36,0.145c-0.135-0.000999-0.262-0.055-0.357-0.152L2,14.729706
		c-0.094-0.096001-0.146-0.224003-0.145-0.359001c0.001-0.135002,0.055-0.262001,0.152-0.357002l2.482-2.435997
		c0.2-0.196003,0.521-0.193001,0.717,0.005997l0.31,0.317001c0.196,0.200001,0.193,0.521-0.006,0.716999l-0.708,0.695
		l1.812,1.846001c0.195,0.199001,0.192,0.52-0.007,0.716L6.29,16.185703C6.195,16.278706,6.069,16.330704,5.935,16.330704
		 M3.763,14.208702l1.874,1.909c0.078,0.079002,0.182,0.124001,0.294,0.125c0.114,0.001003,0.218-0.042,0.297-0.119999
		l0.317-0.311001c0.165-0.161999,0.167-0.426998,0.006-0.591999l-1.873-1.908001l0.771-0.757
		c0.164-0.161999,0.167-0.427998,0.005-0.591999l-0.311-0.317001c-0.162-0.164997-0.427-0.167-0.592-0.004997l-2.482,2.435997
		c-0.08,0.078003-0.125,0.183002-0.126,0.295002c-0.001,0.111,0.042,0.216999,0.12,0.297001l0.311,0.316998
		c0.078,0.079002,0.183,0.124001,0.295,0.125c0.111,0.001003,0.217-0.041,0.297-0.119999L3.763,14.208702z"/>
	<path class="st0" d="M41.293201,11.599804l2.481998,2.436001c0.182999,0.179001,0.185001,0.472,0.007,0.653999l-0.312,0.317001
		c-0.178001,0.182999-0.471001,0.185001-0.653999,0.007l-0.765999-0.751999l-1.842003,1.876999
		c-0.179001,0.181999-0.472,0.185001-0.653999,0.006001l-0.317001-0.311001c-0.181999-0.179001-0.184998-0.472-0.005997-0.653999
		l1.841999-1.876999l-0.739002-0.726002c-0.182999-0.179001-0.184998-0.472-0.005997-0.653999l0.310997-0.317001
		C40.818199,11.423805,41.111198,11.420807,41.293201,11.599804"/>
	<path class="st0" d="M39.877998,16.321404c-0.133999,0-0.258999-0.050999-0.355-0.145l-0.316998-0.311001
		c-0.199001-0.195999-0.202-0.516998-0.007-0.716l1.812-1.845997l-0.708-0.695004
		c-0.199001-0.195999-0.202-0.516998-0.006001-0.716999l0.311001-0.316998c0.195-0.199001,0.516998-0.202003,0.716-0.006001
		L43.806,14.004402c0.097,0.095001,0.151001,0.222,0.152,0.357002c0.000999,0.134998-0.049999,0.263-0.145,0.359001
		l-0.311001,0.316998c-0.094997,0.097-0.221001,0.151001-0.356998,0.152c-0.136002,0.003002-0.262001-0.049999-0.359001-0.145
		l-0.734001-0.719997l-1.811996,1.844997c-0.095001,0.097-0.222,0.151001-0.357002,0.152H39.877998z M40.969002,11.511402
		c-0.108002,0-0.217003,0.042004-0.299004,0.125l-0.310997,0.317001c-0.161003,0.164001-0.159,0.43,0.006001,0.591999l0.771,0.757
		l-1.874001,1.908001c-0.160999,0.165001-0.159,0.43,0.006001,0.591999l0.316998,0.311001
		c0.079002,0.077999,0.183002,0.119999,0.292999,0.119999H39.882c0.112-0.000999,0.216-0.045998,0.294998-0.125l1.873001-1.908997
		L42.847,14.982403c0.079998,0.078003,0.186001,0.117001,0.297001,0.118999c0.112-0.000999,0.216999-0.044998,0.294998-0.125
		L43.75,14.659405c0.078999-0.080002,0.120998-0.185001,0.119999-0.297001s-0.045998-0.216999-0.125-0.294998l-2.482998-2.436001
		C41.181,11.551403,41.075001,11.511402,40.969002,11.511402"/>
	<path class="st3" d="M22.3894,5.126705v2.942001c0,0.334999,0.206999,0.605999,0.462,0.605999h0.445
		c0.254999,0,0.462-0.271,0.462-0.605999V5.126705H22.3894z"/>
	<path class="st0" d="M23.295698,8.725002h-0.444c-0.282999,0-0.513-0.294998-0.513-0.655998v-2.993h1.470001v2.993
		C23.808699,8.430004,23.578699,8.725002,23.295698,8.725002 M22.439699,5.177002v2.892002c0,0.306,0.184999,0.555,0.411999,0.555
		h0.444c0.226999,0,0.413-0.249001,0.413-0.555V5.177002H22.439699z"/>
	<path class="st0" d="M23.092501,35.466202c-1.240002,0-2.249001-1.008995-2.249001-2.248997
		c0-1.239,1.008999-2.248001,2.249001-2.248001c1.24,0,2.247999,1.009001,2.247999,2.248001
		C25.3405,34.457207,24.3325,35.466202,23.092501,35.466202 M23.092501,32.376205c-0.464001,0-0.841002,0.376999-0.841002,0.841
		s0.377001,0.841999,0.841002,0.841999c0.463999,0,0.841-0.377998,0.841-0.841999S23.556499,32.376205,23.092501,32.376205"/>
	<path class="st0" d="M52.458801,37.853703c-0.581001-0.312-1.024002-0.768002-1.329002-1.366001
		c-0.305-0.597-0.457001-1.32-0.457001-2.166v-2.945997c0-0.846001,0.152-1.568001,0.457001-2.167002
		c0.305-0.596998,0.748001-1.053999,1.329002-1.368999c0.580997-0.315001,1.279999-0.472,2.096996-0.472
		c0.674004,0,1.277,0.145,1.808002,0.435001c0.531998,0.290998,0.971001,0.712999,1.318001,1.265999
		c0.347,0.554001,0.586998,1.222,0.719997,2.005001h-2.097c-0.078999-0.355001-0.199997-0.657-0.364998-0.908001
		c-0.165001-0.250999-0.364002-0.442999-0.598-0.576c-0.234001-0.132999-0.496002-0.198999-0.786003-0.198999
		c-0.378998,0-0.700996,0.077-0.967999,0.232c-0.264999,0.154999-0.467999,0.381001-0.607998,0.678999
		c-0.141003,0.298-0.211002,0.656-0.211002,1.074001v2.945997c0,0.418003,0.07,0.775002,0.211002,1.07
		c0.139999,0.295002,0.342999,0.521004,0.607998,0.676003c0.267002,0.154999,0.589001,0.232002,0.967999,0.232002
		c0.295002,0,0.561001-0.065002,0.797001-0.196003c0.236-0.129002,0.436001-0.320999,0.598-0.571999
		c0.162003-0.251003,0.280003-0.555,0.354-0.915001h2.097c-0.138,0.782001-0.381001,1.451-0.726997,2.004002
		c-0.347,0.554001-0.785,0.975998-1.315002,1.265999c-0.528,0.291-1.129997,0.436001-1.804001,0.436001
		C53.7388,38.322704,53.039799,38.166702,52.458801,37.853703"/>
	<path class="st0" d="M60.098999,27.478504h2.022999v10.734001h-2.022999V27.478504z M61.036999,31.914503h6.253002v1.948999
		h-6.253002V31.914503z M65.975998,27.478504h2.022003v10.734001h-2.022003V27.478504z"/>
	<path class="st0" d="M70.361,27.478504h2.022003v10.734001H70.361V27.478504z M71.092003,27.478504h6.459v1.948999h-6.459
		V27.478504z M71.092003,31.907503h5.647003v1.948999h-5.647003V31.907503z M71.092003,36.262505h6.459v1.948997h-6.459V36.262505z"
		/>
	<path class="st0" d="M80.961197,37.853703c-0.581001-0.312-1.023003-0.768002-1.329002-1.366001
		c-0.305-0.597-0.457001-1.32-0.457001-2.166v-2.945997c0-0.846001,0.152-1.568001,0.457001-2.167002
		c0.306-0.596998,0.748001-1.053999,1.329002-1.368999c0.580994-0.315001,1.279999-0.472,2.096992-0.472
		c0.674004,0,1.277,0.145,1.808006,0.435001c0.531998,0.290998,0.971001,0.712999,1.318001,1.265999
		c0.347,0.554001,0.586998,1.222,0.719994,2.005001h-2.097c-0.077995-0.355001-0.199997-0.657-0.364998-0.908001
		c-0.165001-0.250999-0.363998-0.442999-0.598-0.576c-0.234001-0.132999-0.496002-0.198999-0.786003-0.198999
		c-0.378998,0-0.700996,0.077-0.966995,0.232c-0.265999,0.154999-0.469002,0.381001-0.609001,0.678999
		c-0.140999,0.298-0.210999,0.656-0.210999,1.074001v2.945997c0,0.418003,0.07,0.775002,0.210999,1.07
		c0.139999,0.295002,0.343002,0.521004,0.609001,0.676003s0.587997,0.232002,0.966995,0.232002
		c0.295006,0,0.561005-0.065002,0.797005-0.196003c0.236-0.129002,0.435997-0.320999,0.598-0.571999
		c0.162003-0.251003,0.279999-0.555,0.353996-0.915001h2.097c-0.138,0.782001-0.380997,1.451-0.726997,2.004002
		c-0.347,0.554001-0.784996,0.975998-1.314003,1.265999c-0.528999,0.291-1.130997,0.436001-1.805,0.436001
		C82.241196,38.322704,81.542191,38.166702,80.961197,37.853703"/>
	<path class="st0" d="M88.602196,27.478504h2.023003v10.733997h-2.023003V27.478504z M89.820198,34.018505l4.304001-6.540001
		h2.545998l-6.592003,9.167999L89.820198,34.018505z M91.606201,32.778503l1.741997-1.099998l3.773003,6.533997h-2.399002
		L91.606201,32.778503z"/>
	<path class="st0" d="M99.505096,37.853703c-0.585007-0.312-1.031006-0.768002-1.336006-1.366001
		c-0.305-0.597-0.457001-1.316998-0.457001-2.158997v-6.850002h2.022003v6.902c0,0.615002,0.165001,1.092999,0.495003,1.432003
		c0.328995,0.338997,0.794998,0.508995,1.394997,0.508995c0.605003,0,1.073997-0.169998,1.405998-0.508995
		c0.332001-0.339005,0.498001-0.817001,0.498001-1.432003v-6.902h2.023003v6.850002c0,0.841999-0.153999,1.561996-0.460999,2.158997
		c-0.308006,0.598-0.756004,1.054001-1.344002,1.366001c-0.587997,0.313-1.294998,0.469002-2.122002,0.469002
		C100.797096,38.322704,100.090096,38.166702,99.505096,37.853703"/>
	<path class="st0" d="M107.618294,27.478306h2.022003v10.733997h-2.022003V27.478306z M108.541298,32.099304h3.432999
		c0.239998,0,0.453995-0.055,0.638-0.165998c0.184998-0.111,0.327995-0.267,0.431999-0.469
		c0.102997-0.201,0.154999-0.432001,0.154999-0.694c0-0.265001-0.051003-0.5-0.151001-0.705
		c-0.100998-0.204-0.244003-0.362001-0.428001-0.472c-0.184998-0.111-0.401001-0.166-0.645996-0.166h-3.432999v-1.948999h3.380997
		c0.668999,0,1.259003,0.136999,1.767998,0.41c0.509003,0.272999,0.903999,0.657999,1.184006,1.154999
		c0.280998,0.497,0.420998,1.073,0.420998,1.727001c0,0.654999-0.139999,1.229-0.420998,1.723999
		c-0.280006,0.494999-0.675003,0.877003-1.184006,1.147999c-0.508995,0.271004-1.098999,0.406002-1.767998,0.406002h-3.380997
		V32.099304z"/>
	<path class="st0" d="M118.754204,38.167702c-0.490005-0.103996-0.950005-0.254997-1.380005-0.453995
		c-0.431-0.199005-0.816002-0.440002-1.155998-0.720001l0.937996-1.667999c0.413002,0.339996,0.890007,0.600998,1.432007,0.785995
		c0.541,0.184002,1.098,0.277,1.667999,0.277c0.659996,0,1.171997-0.112,1.535995-0.335999s0.546005-0.540001,0.546005-0.947998
		v-0.008003c0-0.284996-0.081001-0.511997-0.244003-0.679001c-0.162003-0.167-0.374001-0.290997-0.634003-0.368996
		c-0.260994-0.079002-0.596001-0.150002-1.003998-0.214005c-0.014999-0.004997-0.028999-0.007996-0.041-0.007996
		c-0.013,0-0.026001-0.001999-0.040001-0.007004l-0.163002-0.021996c-0.718994-0.113003-1.313995-0.255005-1.786995-0.425003
		c-0.472-0.168999-0.873001-0.466999-1.203003-0.892998c-0.328995-0.425003-0.493996-1.030001-0.493996-1.812002v-0.007999
		c0-0.694,0.154999-1.285999,0.464996-1.778999c0.309998-0.492001,0.760002-0.867001,1.350998-1.126001
		c0.590004-0.257999,1.304001-0.386999,2.141006-0.386999c0.382996,0,0.775993,0.044001,1.176994,0.132999
		c0.401001,0.087999,0.792999,0.216,1.178001,0.384001c0.383003,0.167,0.747002,0.368,1.092003,0.605l-0.857002,1.712999
		c-0.413002-0.285-0.845001-0.507-1.294998-0.664999c-0.450005-0.157-0.882004-0.236-1.294998-0.236
		c-0.620003,0-1.100006,0.101999-1.440002,0.306c-0.340004,0.205-0.510002,0.490999-0.510002,0.860001v0.007999
		c0,0.309999,0.089005,0.555,0.266998,0.733999c0.177002,0.18,0.396004,0.312,0.656006,0.395
		c0.260994,0.084,0.627998,0.173,1.099998,0.266001c0.019997,0.004999,0.039001,0.008999,0.058998,0.011
		c0.019997,0.003,0.040001,0.007,0.059998,0.011c0.028999,0.005001,0.056999,0.011,0.084999,0.019001
		c0.026001,0.007,0.055,0.012999,0.084007,0.018c0.679993,0.133001,1.246994,0.294001,1.701996,0.483999
		c0.455002,0.189003,0.834999,0.493999,1.139999,0.915001c0.305,0.420998,0.458,0.996002,0.458,1.723999v0.014
		c0,0.683998-0.159996,1.27-0.479996,1.757c-0.32,0.488003-0.786003,0.860001-1.399002,1.115002
		c-0.612,0.255997-1.348999,0.383999-2.210999,0.383999C119.745201,38.322704,119.244202,38.270706,118.754204,38.167702"/>
</g>
<g>
	<path class="st4" d="M51.199219,42.00116h0.787598v4.071289h-0.787598V42.00116z M53.59375,43.605652
		c0-0.287109-0.069336-0.509766-0.208496-0.666992c-0.13916-0.15625-0.335938-0.235352-0.59082-0.235352
		c-0.257813,0-0.456543,0.069336-0.59668,0.208008c-0.140625,0.138672-0.210938,0.333984-0.210938,0.584961l-0.081055-0.785156
		c0.124023-0.245117,0.285156-0.43457,0.484863-0.568359c0.199707-0.132813,0.42041-0.200195,0.662598-0.200195
		c0.280762,0,0.52002,0.06543,0.718262,0.194336c0.198242,0.129883,0.349609,0.318359,0.454102,0.566406
		c0.104004,0.249023,0.15625,0.547852,0.15625,0.898438v2.470703H53.59375V43.605652z M55.98877,43.605652
		c0-0.287109-0.073242-0.509766-0.220215-0.666992c-0.146973-0.15625-0.353027-0.235352-0.618164-0.235352
		c-0.244629,0-0.433594,0.076172-0.567871,0.227539c-0.133789,0.152344-0.200684,0.366211-0.200684,0.643555l-0.158203-0.78418
		c0.125977-0.269531,0.292969-0.478516,0.5-0.625977c0.20752-0.147461,0.436035-0.22168,0.685547-0.22168
		c0.288574,0,0.535156,0.06543,0.739746,0.194336c0.205078,0.129883,0.36084,0.318359,0.467285,0.566406
		c0.106934,0.249023,0.160645,0.547852,0.160645,0.898438v2.470703H55.98877V43.605652z"/>
	<path class="st4" d="M58.736816,45.919128c-0.262695-0.140625-0.462891-0.347656-0.600586-0.621094
		c-0.138184-0.273438-0.207031-0.603516-0.207031-0.990234v-0.458984c0-0.402344,0.066406-0.746094,0.199219-1.03125
		c0.132324-0.285156,0.325195-0.501953,0.577148-0.651367c0.252441-0.148438,0.556641-0.223633,0.911621-0.223633
		c0.334961,0,0.620605,0.084961,0.85791,0.254883c0.236816,0.169922,0.41748,0.416016,0.54248,0.737305
		c0.125,0.322266,0.1875,0.708008,0.1875,1.157227v0.266602h-2.704102v-0.643555h1.95459
		c-0.022949-0.332031-0.107422-0.589844-0.25293-0.774414c-0.145508-0.183594-0.34082-0.276367-0.585449-0.276367
		c-0.29834,0-0.529785,0.099609-0.693359,0.297852c-0.163574,0.199219-0.245117,0.480469-0.245117,0.84375v0.517578
		c0,0.336914,0.087402,0.595703,0.262695,0.776367s0.42334,0.270508,0.745605,0.270508
		c0.159668,0,0.317871-0.032227,0.475098-0.097656c0.156738-0.06543,0.297363-0.157227,0.420898-0.274414l0.517578,0.525391
		c-0.198242,0.193359-0.420898,0.342773-0.667969,0.449219c-0.247559,0.105469-0.496094,0.158203-0.745605,0.158203
		C59.315918,46.131042,58.999512,46.06073,58.736816,45.919128z"/>
	<path class="st4" d="M62.876953,45.948425c-0.207031-0.128906-0.365234-0.317383-0.472656-0.566406
		c-0.108398-0.248047-0.162109-0.545898-0.162109-0.893555v-0.898438c0-0.350586,0.052734-0.649414,0.158203-0.898438
		c0.105469-0.248047,0.259766-0.436523,0.460938-0.566406c0.203125-0.129883,0.445313-0.194336,0.728516-0.194336
		c0.236328,0,0.453125,0.0625,0.650391,0.188477c0.197266,0.125,0.357422,0.301758,0.478516,0.529297l-0.082031,0.831055
		c0-0.171875-0.03125-0.319336-0.091797-0.442383c-0.0625-0.123047-0.152344-0.216797-0.269531-0.280273
		c-0.117188-0.064453-0.259766-0.09668-0.425781-0.09668c-0.261719,0-0.462891,0.083008-0.605469,0.24707
		c-0.142578,0.165039-0.214844,0.396484-0.214844,0.694336v0.886719c0,0.294922,0.072266,0.523438,0.214844,0.683594
		c0.142578,0.161133,0.34375,0.241211,0.605469,0.241211c0.166016,0,0.308594-0.033203,0.425781-0.099609
		s0.207031-0.163086,0.269531-0.288086c0.060547-0.125977,0.091797-0.276367,0.091797-0.451172l0.054688,0.858398
		c-0.080078,0.202148-0.210938,0.370117-0.392578,0.505859c-0.181641,0.136719-0.404297,0.204102-0.669922,0.204102
		C63.335938,46.142761,63.083984,46.078308,62.876953,45.948425z M64.636719,40.3703h0.787109v5.702148h-0.787109V40.3703z"/>
	<path class="st4" d="M66.693359,40.3703h0.788086v0.799805h-0.788086V40.3703z M66.693359,42.00116h0.788086v4.071289h-0.788086
		V42.00116z"/>
	<path class="st4" d="M69.439453,45.923035c-0.258789-0.137695-0.456055-0.339844-0.592773-0.603516
		s-0.205078-0.583008-0.205078-0.957031v-0.670898c0-0.368164,0.068359-0.683594,0.205078-0.944336
		c0.136719-0.261719,0.333984-0.460938,0.592773-0.598633c0.258789-0.136719,0.571289-0.206055,0.936523-0.206055
		c0.208984,0,0.405273,0.025391,0.588867,0.077148c0.18457,0.050781,0.349609,0.124023,0.49707,0.220703
		c0.146484,0.097656,0.268555,0.214844,0.366211,0.353516l-0.567383,0.517578
		c-0.113281-0.130859-0.246094-0.231445-0.397461-0.301758c-0.152344-0.071289-0.310547-0.106445-0.475586-0.106445
		c-0.303711,0-0.539063,0.086914-0.707031,0.258789c-0.166992,0.172852-0.250977,0.416016-0.250977,0.729492v0.670898
		c0,0.321289,0.083008,0.570313,0.249023,0.745117s0.402344,0.262695,0.708984,0.262695
		c0.166992,0,0.327148-0.038086,0.478516-0.113281c0.152344-0.076172,0.28418-0.183594,0.394531-0.322266l0.567383,0.557617
		c-0.099609,0.135742-0.223633,0.250977-0.370117,0.34668c-0.147461,0.095703-0.3125,0.167969-0.49707,0.217773
		c-0.183594,0.049805-0.378906,0.074219-0.584961,0.074219C70.010742,46.131042,69.698242,46.061707,69.439453,45.923035z"/>
	<path class="st4" d="M72.942383,45.819519c-0.245117-0.208008-0.367188-0.523438-0.367188-0.947266
		c0-0.402344,0.112305-0.704102,0.335938-0.90625c0.224609-0.201172,0.5625-0.301758,1.015625-0.301758h1.139648l0.054688,0.643555
		h-1.19043c-0.206055,0-0.359375,0.045898-0.460938,0.138672s-0.152344,0.235352-0.152344,0.425781
		c0,0.207031,0.067383,0.359375,0.202148,0.458984c0.135742,0.099609,0.34082,0.149414,0.616211,0.149414
		c0.301758,0,0.526367-0.033203,0.673828-0.098633c0.148438-0.06543,0.222656-0.166992,0.222656-0.305664l0.081055,0.572266
		c-0.069336,0.110352-0.155273,0.200195-0.256836,0.270508c-0.101563,0.071289-0.219727,0.124023-0.353516,0.15918
		s-0.285156,0.052734-0.452148,0.052734C73.556641,46.131042,73.186523,46.027527,72.942383,45.819519z M75.032227,43.492371
		c0-0.267578-0.070313-0.474609-0.210938-0.62207s-0.338867-0.22168-0.59668-0.22168
		c-0.160156,0-0.316406,0.025391-0.469727,0.074219c-0.152344,0.049805-0.289063,0.119141-0.407227,0.208008l-0.575195-0.399414
		c0.151367-0.185547,0.351563-0.330078,0.600586-0.433594c0.248047-0.103516,0.524414-0.155273,0.828125-0.155273
		c0.332031,0,0.617188,0.05957,0.853516,0.178711c0.237305,0.119141,0.417969,0.291992,0.541016,0.517578
		c0.124023,0.226563,0.185547,0.499023,0.185547,0.817383v2.616211h-0.749023V43.492371z"/>
	<path class="st4" d="M77.838867,45.021667c0,0.099609,0.021484,0.175781,0.063477,0.229492
		c0.042969,0.053711,0.102539,0.080078,0.179688,0.080078h0.371094v0.760742h-0.463867
		c-0.298828,0-0.530273-0.09375-0.693359-0.282227s-0.245117-0.454102-0.245117-0.795898V40.3703h0.788086V45.021667z"/>
	<path class="st4" d="M81.616211,40.3703h0.788086v5.702148h-0.788086V40.3703z M84.049805,43.605652
		c0-0.287109-0.073242-0.509766-0.220703-0.666992c-0.146484-0.15625-0.352539-0.235352-0.618164-0.235352
		c-0.256836,0-0.456055,0.068359-0.59668,0.204102c-0.139648,0.135742-0.209961,0.328125-0.209961,0.577148l-0.081055-0.785156
		c0.123047-0.240234,0.285156-0.426758,0.484375-0.558594s0.420898-0.198242,0.662109-0.198242
		c0.435547,0,0.772461,0.144531,1.010742,0.433594s0.357422,0.697266,0.357422,1.225586v2.470703h-0.788086V43.605652z"/>
	<path class="st4" d="M86.902344,44.476746c0,0.28418,0.071289,0.504883,0.213867,0.660156
		c0.143555,0.15625,0.344727,0.233398,0.604492,0.233398c0.257813,0,0.457031-0.069336,0.598633-0.208008
		s0.212891-0.335938,0.212891-0.591797l0.053711,0.850586c-0.082031,0.202148-0.21582,0.370117-0.401367,0.505859
		c-0.185547,0.136719-0.413086,0.204102-0.683594,0.204102c-0.443359,0-0.785156-0.144531-1.025391-0.433594
		c-0.241211-0.288086-0.361328-0.695313-0.361328-1.220703V42.00116h0.788086V44.476746z M88.532227,42.00116h0.78418v4.071289
		h-0.78418V42.00116z"/>
	<path class="st4" d="M90.584961,40.3703h0.788086v5.702148h-0.788086V40.3703z M91.728516,45.948425
		c-0.185547-0.121094-0.322266-0.292969-0.410156-0.515625l0.054688-0.850586c0,0.174805,0.030273,0.324219,0.092773,0.447266
		c0.061523,0.123047,0.151367,0.216797,0.268555,0.282227s0.258789,0.097656,0.426758,0.097656
		c0.259766,0,0.460938-0.080078,0.604492-0.241211c0.142578-0.160156,0.213867-0.387695,0.213867-0.679688v-0.882813
		c0-0.297852-0.071289-0.529297-0.213867-0.694336c-0.143555-0.164063-0.344727-0.24707-0.604492-0.24707
		c-0.167969,0-0.30957,0.03125-0.426758,0.094727c-0.117188,0.0625-0.207031,0.154297-0.268555,0.276367
		c-0.0625,0.121094-0.092773,0.266602-0.092773,0.436523l-0.081055-0.78418c0.121094-0.237305,0.279297-0.420898,0.474609-0.550781
		c0.196289-0.128906,0.413086-0.194336,0.65332-0.194336c0.283203,0,0.525391,0.06543,0.727539,0.194336
		c0.202148,0.129883,0.356445,0.318359,0.461914,0.566406c0.105469,0.249023,0.158203,0.547852,0.158203,0.898438v0.886719
		c0,0.344727-0.053711,0.640625-0.162109,0.885742c-0.108398,0.246094-0.266602,0.433594-0.475586,0.5625
		c-0.208008,0.129883-0.458008,0.194336-0.749023,0.194336C92.130859,46.131042,91.913086,46.070496,91.728516,45.948425z"/>
</g>
</svg>
